<svg width="256" height="256" viewBox="0 0 256 256" fill="none" xmlns="http://www.w3.org/2000/svg">
  <path d="M53 78C40 48 57 26 92 31L112 88L53 78Z" fill="#111111"/>
  <path d="M203 78C216 48 199 26 164 31L144 88L203 78Z" fill="#111111"/>
  <path d="M128 42C174 42 209 78 209 124C209 175 172 219 128 219C84 219 47 175 47 124C47 78 82 42 128 42Z" fill="#111111"/>
  <path d="M79 103C86 82 100 68 120 63C107 77 99 91 95 111C89 112 84 109 79 103Z" fill="#FFFFFF"/>
  <path d="M177 103C170 82 156 68 136 63C149 77 157 91 161 111C167 112 172 109 177 103Z" fill="#FFFFFF"/>
  <path d="M88 120C99 112 113 112 123 122C109 126 99 133 94 145C89 139 87 130 88 120Z" fill="#FFFFFF"/>
  <path d="M168 120C157 112 143 112 133 122C147 126 157 133 162 145C167 139 169 130 168 120Z" fill="#FFFFFF"/>
  <ellipse cx="101" cy="129" rx="10" ry="11" fill="#FFFFFF"/>
  <ellipse cx="155" cy="129" rx="10" ry="11" fill="#FFFFFF"/>
  <circle cx="101" cy="130" r="5" fill="#111111"/>
  <circle cx="155" cy="130" r="5" fill="#111111"/>
  <path d="M128 136C141 136 151 145 151 157C151 170 141 179 128 179C115 179 105 170 105 157C105 145 115 136 128 136Z" fill="#FFFFFF"/>
  <path d="M116 150C116 142 121 137 128 137C135 137 140 142 140 150V154H116V150Z" fill="#111111"/>
  <path d="M128 153L118 163H138L128 153Z" fill="#111111"/>
  <path d="M84 146C97 143 109 147 118 157C106 161 97 169 92 182C85 173 82 160 84 146Z" fill="#FFFFFF"/>
  <path d="M172 146C159 143 147 147 138 157C150 161 159 169 164 182C171 173 174 160 172 146Z" fill="#FFFFFF"/>
  <path d="M118 162C112 178 102 191 89 201C100 207 113 211 128 211C143 211 156 207 167 201C154 191 144 178 138 162H118Z" fill="#FFFFFF"/>
  <path d="M92 58L76 47L82 71L92 58Z" fill="#FFFFFF"/>
  <path d="M164 58L180 47L174 71L164 58Z" fill="#FFFFFF"/>
</svg>
