<svg width="256" height="256" viewBox="0 0 256 256" fill="none" xmlns="http://www.w3.org/2000/svg">
  <path d="M54 82C44 58 57 37 84 36L105 80L54 82Z" fill="#111111"/>
  <path d="M202 82C212 58 199 37 172 36L151 80L202 82Z" fill="#111111"/>
  <path d="M128 44C168 44 203 76 203 122C203 173 169 216 128 216C87 216 53 173 53 122C53 76 88 44 128 44Z" fill="#111111"/>
  <path d="M81 102C88 84 102 72 119 68C107 79 100 90 96 107C91 108 86 106 81 102Z" fill="#FFFFFF"/>
  <path d="M175 102C168 84 154 72 137 68C149 79 156 90 160 107C165 108 170 106 175 102Z" fill="#FFFFFF"/>
  <path d="M92 118C104 111 116 112 124 122C111 124 102 128 96 138C92 133 90 126 92 118Z" fill="#FFFFFF"/>
  <path d="M164 118C152 111 140 112 132 122C145 124 154 128 160 138C164 133 166 126 164 118Z" fill="#FFFFFF"/>
  <ellipse cx="102" cy="128" rx="10" ry="11" fill="#FFFFFF"/>
  <ellipse cx="154" cy="128" rx="10" ry="11" fill="#FFFFFF"/>
  <circle cx="102" cy="129" r="5" fill="#111111"/>
  <circle cx="154" cy="129" r="5" fill="#111111"/>
  <path d="M128 133C140 133 149 141 149 151C149 162 140 171 128 171C116 171 107 162 107 151C107 141 116 133 128 133Z" fill="#FFFFFF"/>
  <path d="M116 148C116 141 121 136 128 136C135 136 140 141 140 148V152H116V148Z" fill="#111111"/>
  <path d="M128 151L119 160H137L128 151Z" fill="#111111"/>
  <path d="M86 146C98 143 108 146 116 155C105 158 98 164 94 174C87 167 84 157 86 146Z" fill="#FFFFFF"/>
  <path d="M170 146C158 143 148 146 140 155C151 158 158 164 162 174C169 167 172 157 170 146Z" fill="#FFFFFF"/>
  <path d="M117 160C112 176 102 188 90 197C104 203 116 205 128 205C140 205 152 203 166 197C154 188 144 176 139 160H117Z" fill="#FFFFFF"/>
  <path d="M118 164C111 179 103 189 95 196C100 200 111 204 128 204C145 204 156 200 161 196C153 189 145 179 138 164H118Z" fill="#FFFFFF"/>
  <path d="M94 61L77 48L82 73L94 61Z" fill="#FFFFFF"/>
  <path d="M162 61L179 48L174 73L162 61Z" fill="#FFFFFF"/>
</svg>
